<?xml version="1.0" encoding="UTF-8"?>
<svg id="_图层_2" data-name="图层 2" xmlns="http://www.w3.org/2000/svg" xmlns:xlink="http://www.w3.org/1999/xlink" viewBox="0 0 2000 2000">
  <defs>
    <style>
      .cls-1 {
        fill: url(#_未命名的渐变_8);
      }

      .cls-2 {
        fill: url(#_未命名的渐变_15);
      }

      .cls-3 {
        fill: url(#_未命名的渐变_13);
      }

      .cls-4 {
        fill: url(#_未命名的渐变_12);
      }
    </style>
    <linearGradient id="_未命名的渐变_12" data-name="未命名的渐变 12" x1="948.01" y1="983.43" x2="1781.22" y2="983.43" gradientUnits="userSpaceOnUse">
      <stop offset="0" stop-color="#ffda00"/>
      <stop offset=".32" stop-color="#ffde00"/>
      <stop offset=".67" stop-color="#ffec00"/>
      <stop offset=".99" stop-color="#ff0"/>
    </linearGradient>
    <linearGradient id="_未命名的渐变_15" data-name="未命名的渐变 15" x1="792.26" y1="1970.16" x2="1392.57" y2="1072.76" gradientUnits="userSpaceOnUse">
      <stop offset="0" stop-color="#ffda00"/>
      <stop offset=".99" stop-color="#f4b30f"/>
    </linearGradient>
    <linearGradient id="_未命名的渐变_13" data-name="未命名的渐变 13" x1="504.93" y1="940.71" x2="1318.3" y2="57.72" gradientUnits="userSpaceOnUse">
      <stop offset="0" stop-color="#f4b30f"/>
      <stop offset=".46" stop-color="#fac006"/>
      <stop offset="1" stop-color="#fc0"/>
    </linearGradient>
    <linearGradient id="_未命名的渐变_8" data-name="未命名的渐变 8" x1="568.6" y1="1036.06" x2="1174.93" y2="1201.48" gradientUnits="userSpaceOnUse">
      <stop offset="0" stop-color="#c67a00"/>
      <stop offset=".38" stop-color="#c67b04"/>
      <stop offset=".8" stop-color="#c87f12"/>
      <stop offset=".99" stop-color="#c9821b"/>
    </linearGradient>
  </defs>
  <g>
    <path class="cls-4" d="M1749.31,844.12c31.45,7.2,42.67,46.19,19.86,69.01l-162.64,162.66-171.13,171.13c-124.25,124.25-323.38-31.77-232.48-182.14l42.83-70.84-169.41-39.03c-123.83-28.53-170.52-180.29-84.13-273.49h0c4.99-5.38,12.47-7.69,19.62-6.05l737.48,168.76Z"/>
    <path class="cls-2" d="M1553.96,1128.36l-865.44,865.42c-17.14,17.13-44.6-4.38-32.06-25.12l589.29-974.73,288.28,65.4c31.49,7.15,42.77,46.19,19.93,69.02Z"/>
  </g>
  <g>
    <path class="cls-3" d="M1413.82,74l-796.35,859.12,26.61,244.2-390.27-89.3c-31.72-7.26-45.5-44.7-26.09-70.8L846.7,185.74C976.27,11.68,1209.72-48.45,1407.25,41.38c7.75,3.53,12.04,11.08,12.04,18.73,0,4.92-1.76,9.89-5.48,13.89Z"/>
    <path class="cls-1" d="M617.46,933.13l-133.85,144.39c-21.46,23.15-9.83,60.85,20.94,67.89l433.11,99.12c8.63,1.97,17.55-1.81,22.13-9.38h0c58.51-96.79,5.22-222.47-105.03-247.7l-237.31-54.31Z"/>
  </g>
</svg>